<?xml version="1.0" encoding="UTF-8" standalone="no"?>
<!-- Created with Inkscape (http://www.inkscape.org/) -->

<svg
   xmlns:dc="http://purl.org/dc/elements/1.1/"
   xmlns:cc="http://creativecommons.org/ns#"
   xmlns:rdf="http://www.w3.org/1999/02/22-rdf-syntax-ns#"
   xmlns:svg="http://www.w3.org/2000/svg"
   xmlns="http://www.w3.org/2000/svg"
   xmlns:sodipodi="http://sodipodi.sourceforge.net/DTD/sodipodi-0.dtd"
   xmlns:inkscape="http://www.inkscape.org/namespaces/inkscape"
   id="svg3336"
   version="1.1"
   inkscape:version="0.91 r13725"
   width="128"
   height="128"
   viewBox="0 0 128 128"
   sodipodi:docname="logo.svg"
   inkscape:export-filename="/home/hans/go/src/micro-ide/assets/logo.png"
   inkscape:export-xdpi="303.01999"
   inkscape:export-ydpi="303.01999">
  <metadata
     id="metadata3342">
    <rdf:RDF>
      <cc:Work
         rdf:about="">
        <dc:format>image/svg+xml</dc:format>
        <dc:type
           rdf:resource="http://purl.org/dc/dcmitype/StillImage" />
        <dc:title />
      </cc:Work>
    </rdf:RDF>
  </metadata>
  <defs
     id="defs3340" />
  <sodipodi:namedview
     pagecolor="#ffffff"
     bordercolor="#666666"
     borderopacity="1"
     objecttolerance="10"
     gridtolerance="10"
     guidetolerance="10"
     inkscape:pageopacity="0"
     inkscape:pageshadow="2"
     inkscape:window-width="1920"
     inkscape:window-height="1055"
     id="namedview3338"
     showgrid="false"
     inkscape:zoom="1.6243169"
     inkscape:cx="-9.6509106"
     inkscape:cy="30.538264"
     inkscape:window-x="0"
     inkscape:window-y="25"
     inkscape:window-maximized="1"
     inkscape:current-layer="svg3336" />
  <path
     style="fill:#333333;fill-opacity:1"
     d="m 56.1,127.8097 c -13.68932,-1.70993 -27.156628,-8.3544 -37.112903,-18.31068 -25.0687936,-25.068784 -25.0687936,-65.957006 0,-91.025799 25.068793,-25.0687939 65.957015,-25.0687939 91.025803,0 25.0688,25.068793 25.0688,65.957015 0,91.025799 C 95.87457,123.63735 76.198116,130.32016 56.1,127.8097 Z"
     id="path3364"
     inkscape:connector-curvature="0" />
  <path
     style="fill:#ffcc00"
     d="m 30.756452,100.26176 c 1.442831,-1.834258 1.55476,-4.096868 0.414499,-8.378988 -0.678184,-2.546844 -0.684604,-4.05591 -0.03829,-9 1.276867,-9.767604 4.483143,-23.040636 5.565559,-23.039766 0.220979,1.74e-4 0.417725,2.092674 0.437213,4.65 0.04167,5.468298 1.558564,9.06891 4.638769,11.010942 2.551646,1.608774 9.15365,1.329324 12.80399,-0.541974 3.245124,-1.663572 7.649064,-6.112434 9.850956,-9.951438 l 1.759588,-3.067854 0.0054,3.922866 c 0.0042,2.867148 0.36894,4.642788 1.355628,6.59796 1.532058,3.035856 3.323226,4.15755 6.659322,4.17033 5.192928,0.01986 9.07014,-3.668676 10.866768,-10.338036 0.98277,-3.64821 1.064448,-11.21265 0.09235,-8.55312 -3.025218,8.276592 -4.468212,9.893562 -9.238056,10.351884 -2.629152,0.25263 -3.177804,0.08883 -4.921776,-1.469412 -1.609044,-1.437678 -2.016072,-2.308416 -2.258508,-4.8315 -0.262884,-2.73585 0.105942,-4.06497 3.32007,-11.964365 C 78.28388,34.557769 79.33625,29.77893 77,27.442682 c -1.559352,-1.559353 -3.62787,-1.522741 -5.691792,0.10074 -2.295762,1.805846 -3.105984,4.070756 -5.14293,14.376662 C 63.701114,54.387524 59.639456,62.217176 53.543348,66.25139 49.052142,69.223532 42.704914,67.882982 40.637191,63.525578 39.19967,60.496226 39.857706,56.795654 43.387813,48.057001 46.613526,40.071868 48.8,32.954051 48.8,30.438246 c 0,-4.161283 -4.366993,-5.665719 -7.364438,-2.537061 -2.183558,2.279144 -3.117251,5.256959 -4.280897,13.653016 -0.547956,3.953665 -1.259292,9.010489 -1.580746,11.237387 -0.321454,2.226896 -2.083918,8.706896 -3.916587,14.400002 -4.33165,13.456074 -6.85029,23.184822 -7.273674,28.096022 -0.325586,3.77675 -0.269352,4.00056 1.319044,5.249998 2.187498,1.72068 3.541408,1.64679 5.05375,-0.27585 z"
     id="path3362"
     inkscape:connector-curvature="0" />
  <text
     xml:space="preserve"
     style="font-style:normal;font-weight:normal;font-size:40px;line-height:125%;font-family:sans-serif;letter-spacing:0px;word-spacing:0px;fill:#000000;fill-opacity:1;stroke:none;stroke-width:1px;stroke-linecap:butt;stroke-linejoin:miter;stroke-opacity:1"
     x="89.574432"
     y="74.380859"
     id="text4134"
     sodipodi:linespacing="125%"><tspan
       sodipodi:role="line"
       id="tspan4136"
       x="89.574432"
       y="74.380859"
       style="font-style:italic;font-variant:normal;font-weight:normal;font-stretch:normal;font-family:sans-serif;-inkscape-font-specification:'sans-serif Italic';fill:#ffcc00">ğ‘’</tspan></text>
</svg>
